<svg xmlns="http://www.w3.org/2000/svg" width="864" height="864"><path fill="#0080C9" d="M500.74 270.82l-4.73-6.75-7.88 2.4 4.96-6.57-4.72-6.75 7.79 2.68 4.96-6.58-.15 8.24 7.8 2.69-7.89 2.4zM714.58 214.93l-4.73-6.75-7.88 2.41 4.96-6.58-4.72-6.75 7.79 2.69 4.96-6.58-.15 8.23 7.8 2.69-7.89 2.4zM608.12 286.83l-6.22-5.58-6.05 5.77.48-8.35-8.28-1.14 6.83-4.82-4.27-7.18 8.02 2.33 2.96-7.82 3.18 7.72 7.95-2.56-4.05 7.3 6.96 4.62-8.24 1.39z"/><path fill="#009FE3" d="M820.87 309.4l-2.99-2.82 3.87-.62a1.13 1.13 0 10-.36-2.23l-5.57.9-3.23-3.07 3.87-.62a1.13 1.13 0 10-.36-2.22l-5.57.9-4.7-4.47 6.21-1.84 4.56 3.31a1.13 1.13 0 101.33-1.81l-3.17-2.31 4.27-1.27 4.56 3.32a1.12 1.12 0 101.33-1.82l-3.17-2.3 3.93-1.17a1.12 1.12 0 10-.64-2.16l-3.93 1.16 1.4-3.66a1.13 1.13 0 00-2.11-.8l-2.01 5.27-4.27 1.27 1.4-3.66a1.12 1.12 0 10-2.11-.8l-2.01 5.27-6.21 1.84 1.5-6.3 5.16-2.29c.56-.25.82-.92.57-1.49a1.13 1.13 0 00-1.49-.57l-3.58 1.59 1.04-4.33 5.15-2.3a1.13 1.13 0 00-.9-2.05l-3.59 1.59.96-4c.14-.6-.23-1.2-.84-1.35-.6-.15-1.21.23-1.35.83l-.96 4-2.47-3.04a1.13 1.13 0 00-1.75 1.42l3.56 4.37-1.04 4.34-2.47-3.04a1.13 1.13 0 10-1.75 1.42l3.56 4.38-1.5 6.3-4.71-4.46.6-5.6a1.13 1.13 0 00-2.25-.24l-.41 3.89-3.24-3.07.6-5.6a1.13 1.13 0 00-2.24-.24l-.41 3.9-2.98-2.83a1.13 1.13 0 00-1.55 1.64l2.98 2.82-3.87.62a1.13 1.13 0 00.35 2.23l5.58-.9 3.23 3.07-3.87.62a1.13 1.13 0 00.36 2.22l5.57-.9 4.7 4.46-6.21 1.85-4.56-3.32a1.12 1.12 0 10-1.32 1.82l3.16 2.3-4.27 1.28-4.56-3.32a1.12 1.12 0 10-1.33 1.82l3.17 2.3-3.93 1.17a1.13 1.13 0 10.64 2.16l3.93-1.16-1.4 3.65c-.09.24-.09.5-.02.72a1.13 1.13 0 002.14.08l2-5.26 4.27-1.27-1.4 3.66c-.09.24-.09.5-.02.72.1.32.34.6.68.73.58.22 1.23-.07 1.45-.65l2.01-5.27 6.22-1.85-1.51 6.31-5.16 2.29c-.52.23-.78.82-.62 1.35l.05.14c.25.57.92.82 1.49.57l3.58-1.6-1.04 4.34-5.15 2.3a1.12 1.12 0 00-.58 1.48c.26.57.92.82 1.5.57l3.57-1.59-.95 4c-.05.19-.04.39.01.57.11.38.41.68.82.78.6.15 1.21-.23 1.36-.83l.95-4 2.47 3.04a1.13 1.13 0 101.75-1.42l-3.56-4.38 1.04-4.33 2.47 3.04a1.12 1.12 0 101.75-1.42l-3.56-4.37 1.5-6.31 4.71 4.46-.59 5.6a1.13 1.13 0 001 1.24c.62.07 1.18-.38 1.24-1l.41-3.9 3.24 3.07-.6 5.62a1.13 1.13 0 002.24.23l.42-3.9 2.97 2.83a1.13 1.13 0 001.56-1.64zM575.4 246.26l-3.81-3.62 4.95-.8a1.45 1.45 0 10-.46-2.85l-7.14 1.15-4.14-3.93 4.96-.8a1.44 1.44 0 10-.46-2.85l-7.14 1.15-6.04-5.72 7.97-2.36 5.85 4.25a1.44 1.44 0 101.7-2.33l-4.06-2.96 5.48-1.62 5.84 4.25a1.44 1.44 0 101.7-2.34l-4.06-2.95 5.05-1.5a1.44 1.44 0 10-.83-2.77l-5.04 1.5 1.79-4.7a1.45 1.45 0 00-2.7-1.02l-2.58 6.76-5.47 1.62 1.78-4.69a1.44 1.44 0 10-2.7-1.03l-2.57 6.76-7.96 2.36 1.93-8.08 6.6-2.93a1.45 1.45 0 00.74-1.91 1.45 1.45 0 00-1.91-.73l-4.58 2.03 1.32-5.55 6.61-2.94a1.44 1.44 0 00-1.17-2.64l-4.59 2.04 1.23-5.11a1.44 1.44 0 10-2.8-.67l-1.24 5.11-3.17-3.9a1.45 1.45 0 00-2.24 1.83l4.57 5.6-1.33 5.57-3.18-3.9a1.44 1.44 0 10-2.23 1.82l4.56 5.61-1.94 8.08-6.03-5.71.76-7.2a1.44 1.44 0 10-2.87-.3l-.53 5-4.15-3.94.77-7.19a1.45 1.45 0 00-2.88-.3l-.52 5-3.82-3.63a1.45 1.45 0 00-1.99 2.1l3.82 3.62-4.96.8a1.45 1.45 0 00.46 2.85l7.14-1.15 4.15 3.93-4.96.8a1.45 1.45 0 00.46 2.85l7.14-1.15 6.03 5.72-7.97 2.36-5.85-4.25a1.44 1.44 0 10-1.7 2.34l4.06 2.95-5.48 1.63-5.84-4.25a1.44 1.44 0 10-1.7 2.33l4.06 2.95-5.04 1.5a1.44 1.44 0 10.82 2.77l5.05-1.5-1.8 4.7a1.44 1.44 0 00.84 1.87c.75.27 1.58-.1 1.87-.85l2.57-6.75 5.48-1.63-1.8 4.69c-.11.3-.12.64-.03.93.13.41.44.77.87.93.75.3 1.58-.08 1.87-.83l2.57-6.76 7.97-2.36-1.93 8.08-6.61 2.94c-.67.3-1 1.05-.8 1.73l.07.18a1.44 1.44 0 001.9.72l4.6-2.04-1.34 5.56-6.6 2.94a1.44 1.44 0 00-.74 1.9 1.45 1.45 0 001.9.74l4.6-2.04-1.23 5.12a1.44 1.44 0 001.07 1.74c.78.19 1.55-.3 1.74-1.07l1.22-5.12 3.17 3.9a1.44 1.44 0 102.24-1.83l-4.56-5.6 1.33-5.56 3.17 3.9a1.44 1.44 0 102.24-1.83l-4.56-5.6 1.93-8.09 6.03 5.71-.76 7.2a1.45 1.45 0 001.28 1.59c.8.08 1.51-.5 1.6-1.29l.52-5 4.15 3.94-.76 7.2a1.44 1.44 0 002.87.3l.53-5 3.82 3.62a1.44 1.44 0 001.99-2.1z"/><ellipse cx="771.55" cy="227.32" fill="#0080C9" rx="19.76" ry="21.93"/><g><path fill="#009FE3" d="M640.84 234.14l102.03 7.5-7.09 96.46-102.03-7.5z"/><path fill="#E2023F" d="M709.58 278.83l2.9-39.4-17.66-1.3-1.6 21.74c-.3.47-.54 1-.67 1.59-1.36 6.46-6.97 11.54-13.05 11.82-6.24.24-12.48-4.43-13.64-10.29-.18-.9-.24-1.83-.2-2.78.66.25 1.33.48 2 .68 7.58 2.34 14.13 1 17.97-3.66a10.88 10.88 0 002.45-8.65 11.2 11.2 0 00-5.02-7.62c-5.9-3.85-13.12-1.62-17.5 1.45a21.3 21.3 0 00-4.47 4.23 29.27 29.27 0 01-8.65-12.34 4.49 4.49 0 00-3.45-2.94 4.88 4.88 0 00-4.53 1.72 4.81 4.81 0 00-.84 4.8 38.12 38.12 0 0013.19 17.5 21.68 21.68 0 005.27 19.96l-24.14-1.81-1.3 17.7 53.98 3.97-2.9 39.4 17.66 1.3 2.9-39.4 30.4 2.23 1.3-17.66-30.4-2.24zm-31.46-27.47c-1.85 1.92-5.56 1.2-8.63.1 1.4-1.42 3.09-2.4 4.9-2.81 1.26-.3 2.94-.3 3.83.56.3.3.47.61.47.94.01.4-.2.82-.57 1.21z"/><path fill="#584998" d="M453.96 297.84v118.07h127.32l1.98-115.86z"/><path fill="#009FE3" d="M543.08 350.52l.88-51.14-22.84-.39-.87 51.09-66.29-1.27v22.85l65.9 1.12-.74 43.13h22.84l.74-42.74 39.3.67.4-22.83z"/><path fill="#E30613" d="M535.55 355.94l-.01.1a6.32 6.32 0 00-4.07-1.67 6.4 6.4 0 00-4.57 1.8v-.01a50.45 50.45 0 00-6.65-6.54c-5.17-4.34-11.88-8.7-16.69-8.83-3.87-.11-4.72 3.7-5.02 8.78-.28 4.76-.07 10.64-1.4 15.46a16.8 16.8 0 00-.49 7.36c.97 5.5 5.25 8.65 10.43 8.55 3.67-.08 8.62-3.46 12.76-6.92a94.18 94.18 0 006.8-6.35 6.38 6.38 0 004.41 1.98 6.39 6.39 0 004.52-1.76 90.47 90.47 0 007.1 7.21c3.7 3.34 7.97 6.4 11.32 6.66 5.24.39 9.74-2.62 10.93-8.2.44-2.06.44-4.44-.15-7.15-1.07-4.95-.51-10.9-.55-15.71-.03-4.99-.72-8.74-4.53-8.84-4.64-.13-11.27 3.58-16.59 7.5a51.97 51.97 0 00-7.55 6.58z"/><g><path fill="#3AAA35" d="M572.98 326.24h139.31v89.68H572.98z"/><path fill="#FFED00" d="M641.53 365.74a40.65 40.65 0 013.43-9.23c2.1 3.63 5.72 7.06 9.46 7.72 1.94.34 4.8.1 7.36-2.98a9.3 9.3 0 001.19-10.26 11.3 11.3 0 00-10.2-6.4c-1.52.05-2.97.3-4.33.76-.03-4.83 1.76-9.26 4.89-11.9a10.21 10.21 0 0110.66-1.49c2.64 1.27 4.05 3.67 3.98 6.78a2.85 2.85 0 001.35 2.58c.96.58 2.25.59 3.29.02a3.2 3.2 0 001.68-2.77c.1-4.9-2.26-9.17-6.5-11.7a15.89 15.89 0 00-15.77-.18c-7.25 4.14-10.9 12.89-9.45 22.46-3.34 3.49-5.29 8.43-6.6 13.03v-35.94h-17.72v39.5h-45.27v17.71h45.27v32.46h17.71v-32.46h76.33v-17.7h-70.76zm13.02-14.62a4.4 4.4 0 012.77 2.66c.26.65.57 1.93-.18 3.12-.56.89-1.1 1-1.47 1h-.02c-1.46 0-3.5-1.71-4.58-3.32a14.35 14.35 0 01-1.54-3.04 6.75 6.75 0 015.02-.42z"/></g><g><path fill="#FFED00" d="M846 352.72l-140.95-33.3-22.8 96.5h148.82z"/><path fill="#E30613" d="M793.2 415.03l3.72.88h34.15l3.38-14.28-36.08-8.52 11.56-48.91-16.3-3.85-11.54 48.91-88.6-20.92-5.17 21.92 88.59 20.93-1.12 4.72h17.2z"/></g></g><g><path fill="#D20A11" d="M453.96 415.91c0-36.2 0-72.4.05-108.66.02-9.48-3.45-21-12.91-20.45 0 0-14.05-.78-33.76-.67-32.86.18-81.7 2.75-108.83 15.2-14.24 6.54-27.07 18.45-34.16 32.42-9.95 19.6-12.19 56.4-12.65 79.23-55.03 3.62-112.41 11.4-146.76 27.17-7.1 3.27-13.5 8.32-18.92 14.27-.94-.24-2-.49-3.13-.75 3.98 8.9 10.22 27.89.27 46.08 9-3.08 18.36-4.7 27.76-4.7 51.57 0 117.1 46.34 138.17 116.45h8.8v.14h192.46v.01h2.35V431.87h375.47v4.63H457.34v175.15h109.29c-3.3-31.87 6.12-61.89 26.53-84.53 18.37-20.38 43.4-32.06 68.7-32.06 51.6 0 117.2 46.4 138.21 116.6h21.4a19.95 19.95 0 0015.07-15.48V450.23h.28v-25.41c2.55-1.61 3.27-8.9 3.27-8.9H453.96zM261.52 597.13v-2.33c.01-1.2.62-151.9 2.42-207.87.54-19.31 2.33-39.35 11.63-55.06 6.22-10.5 16.46-19.04 28.83-24.05 20.58-8.33 57.22-10.43 84.33-10.72l2.34-.03v.01c13.4-.09 25.1.25 26.26.29 3.09-.13 5.83.87 7.97 2.91 3.1 2.94 4.93 8.14 4.92 13.92v2.24c-.1 79.3 0 276.7 0 278.37v2.32h-168.7z"/><path d="M108.65 529.84a70.47 70.47 0 00-70.4 70.4c0 38.81 31.58 70.4 70.4 70.4s70.4-31.59 70.4-70.4a70.48 70.48 0 00-70.4-70.4zm0 93.05a22.65 22.65 0 110-45.3 22.65 22.65 0 010 45.3zM666.36 529.84a70.47 70.47 0 00-70.4 70.4 70.47 70.47 0 0070.4 70.4 70.47 70.47 0 0070.4-70.4 70.47 70.47 0 00-70.4-70.4zm0 93.05a22.65 22.65 0 110-45.3 22.65 22.65 0 010 45.3z"/><g fill="#A51008"><path d="M110.91 499.7c-23.97 0-47.75 11.12-65.24 30.52-19.53 21.66-28.54 50.42-25.37 80.98l-2.3.24h16.46a75.3 75.3 0 01-.84-11.2c0-41.37 33.66-75.03 75.03-75.03 41.37 0 75.02 33.66 75.02 75.03 0 3.8-.28 7.55-.84 11.2l61.4.05c-20.86-67.37-83.77-111.8-133.32-111.8zM417.47 302h-.2c-.13 0-13.58-.42-28.49-.26l-2.34.02c-26.44.38-60.97 2.53-80.3 10.36-11.44 4.63-20.88 12.48-26.58 22.11-9.2 15.54-10.5 35.42-10.99 52.84-1.65 51.57-2.3 188.44-2.4 205.43h159.41c0-20.45-.08-201.88 0-276.07v-2.24c.01-3.5-.9-8.1-3.47-10.55a5.94 5.94 0 00-4.64-1.64zm-7.57 280.1c-2.28-2.6-6.81-4.9-7.64-8.36-1.2-5-1.13-11.24-3.87-15.7-2.36-3.86-5.93-7.78-9.83-10.13-4.83-2.92-10.77-5.05-15.05-8.77-4.3-3.75-3.74-9.23-9.24-11.32-9.64-3.66-18.74-4.08-28.66-5.92-7.24-1.34-14.36-3.54-21.28-6.02a65.66 65.66 0 00-10.49-5.07c-1.21-.48-4.16-2.48-5.41-2.47-.28 0 1.55 12.15 2.3 13.34 1.68 2.64 7.5 4.02 3.58 7.92-1.2 1.2-9.77-6.53-10.36-8.3-1.66-4.95 1.83-8.99-2.86-13.47-2.45-2.35-4.47-6.06-.3-8.12 3.24-1.61 9.28-.48 12.52.4 2.12.58 9.58 5.3 8.86.81-.4-2.48 1.1-5.75 1.83-8.06 2.4-7.63 5.03-13.81 3.61-22.06-.53-3.1.8-5.63-2.9-6.9-2.4-.8-10.08-1.08-10.2-4.85-.03-.56-.68-1.53-1.3-2.48a2.66 2.66 0 112.04-2.77c3.39-.26 7.47-.74 9.79-2.16 3.68-2.24 8.32-1.87 12.92-2.2-.13-1.81 2.22-2.68 3.04-4 1.14-1.84.29-4.36-.4-6.19-.79-2.1-2.37-2.9-4.29-3.85-2.4-1.17-15.7-6.93-14.32-10.85 1.06-2.96 1.42-4.67 2.8-.24.32 1 4.38 4.99 4.59 4.53.66-1.51-2.42-12.86.15-13.28 1.47-.24 1.96 12.79 5.08 13.43 3.03.63.7-4.84.75-5.6.29-4.02 4.32-3.31 2.66 1.38-.94 2.66 3.28 9.28 5.91 9.6 2.43.31 1.01-5.45 3.03-5.66 3.22-.34-1.44 9.5-1.78 10.32-.17.4-2.87 10.51-1.28 10.29-1.05.15 5.86-6.27 4.83-1.6a16.08 16.08 0 01-2.66 4.8c-.6.62-2.3.59-2.64 1.17-1.4 2.43.13 6.6.03 9.34-.46 12.73 2.48 26.03 13.86 33 4.7 2.9 9.9 4.94 15.14 6.65 4.16 1.35 7.46 1.88 11.7 2.45 1.74.23 6.01.33 7.32 1.46 1.77 1.53 6.12 4.01 8.62 3.75 2.9-.3 6.29-3.27 8.46-5.02.97-.77 1.02-6.3.62-6.27.45.2.82.5 1.13.89 2.5 2.59 4.5 6.53 2.22 9.9-1.8 2.67-5.03 2.35-7.82 3.1-6.14 1.68.34 5.45-1.68 10.34-4.84 11.72 1.92 20.74 9.9 28.27 4.26 4.03 2.36 8.53 3.07 14.04.44 3.44 2 10.37 5.57 11.55 1.9.63 3.28 10.6-1.67 4.97zm5.75-182.36c-.02 6.87-9.1 9.43-16.95 9.41l-107.75.5c-7.85-.02-12.26-8.05-10.76-14.8 0 0 .6-36.06 8.61-49.72 6.2-10.57 16.46-18.77 28.25-23.54 21.21-7.17 50.34-8.54 69.14-8.61l.04-.03c11.28-.04 18.83.4 18.83.4 7.84-.4 10.78 7.93 10.76 14.8l-.17 71.59zM661.85 499.7c-23.97 0-47.75 11.12-65.25 30.52-19.53 21.66-28.5 50.88-25.32 81.43h20.92a75.3 75.3 0 01-.87-11.41c0-41.37 33.66-75.03 75.03-75.03 41.37 0 75.03 33.66 75.03 75.03 0 3.88-.3 7.7-.87 11.41h54.7C774.41 544.2 711.44 499.7 661.85 499.7zM42.22 527.12a99.27 99.27 0 0134.22-24.77c10.34-19.24 1.85-43.92-.6-50.14-10.18-1.87-23.04-3.07-30.47.85-3.9 3.58-6.66 44.45-6.66 55.29 0 7.5 1.33 14.23 3.43 18.87l.08-.1z"/></g><g><path d="M475.26 460.14c0-3.1 4.2-5.58 6.97-5.58 4.15 0 4.65 3.87 4.37 7.08l2.16.22c.05-.72.1-1.44.1-2.22 0-4.36-2.32-7.02-6.8-7.02-4.25 0-11.05 3.43-11.05 8.3 0 8.3 15.2 9.12 15.2 18.24 0 3.05-2.04 5.37-5.2 5.37-3.2 0-8.9-4.04-6.63-7.85 1.22-1.94 6.14-3.05 6.58.1-.06 2.33-4.04 2.66-3.32-.21-.72.16-1.38.33-2.1.55-.94 6.2 9.18 3.48 7.52-1.05-1.71-4.6-8.46-4.15-10.56-.22-3.1 5.58 2.21 11.17 8.13 11.17 5.08 0 10.17-3.21 10.17-8.74 0-9.73-15.54-10.78-15.54-18.14zM495.67 482.65c-1.55 0-2.77 1.21-2.77 2.76s1.22 2.77 2.77 2.77 2.76-1.22 2.76-2.77-1.21-2.76-2.76-2.76zM519.5 474.63c-3.6-2.27-7.24 3.04-5.75 6.2a3.27 3.27 0 002.71 1.7l-.05-1.65c-1.44-1.77-.72-5.59 2.04-4.31 2.55 1.16 2.49 5.36.5 6.96-1.05.39-2.1 1-3.7 1-7.14 0-10.79-6.14-10.79-12.55 0-5.59 3.49-16.43 10.5-16.43 2.83 0 4.54 2.66 4.82 5.2l2.16-.39c-.56-3.54-3.16-7.3-7.03-7.3-9.67 0-14.37 9.35-14.37 17.98 0 9.67 4.7 15.48 14.65 15.48.83 0 1.66-.11 2.43-.33 5.48-.5 6.64-8.68 1.88-11.56z"/><path d="M529.18 467.94c4.7-.11 9.79-2.38 10.07-7.52.22-5.09-3.93-7.63-7.97-7.47-2.76-.44-6.8 1-6.41 4.48l-.06 7.8c-1.32-.44-2.37-1.22-2.49-2.6-.71.17-1.38.33-2.1.55.22 2.5 2.27 3.6 4.54 4.26l-.17 19.47 16.04-.17v-2.21l-11.62.28.17-16.87zm.06-10.45c1-5.03 9.18-1.22 7.9 2.98-1.16 3.82-4.3 5.48-7.96 5.48l.11-8.46h-.05zM555.84 456c-1.11-2-2.88-4.32-5.37-4.32-5.47 0-8.51 7.25-8.51 13.55l.05 20.62h4.42c-.77-20.9-.55-21.73-.5-22.22l9.4-.23c.23 2.44.28 4.82.28 7.25 0 6.97.45 11.5.45 16.03h1.99c-.06-7.9.66-25.54-2.21-30.69zm-9.4 5.41c.55-2.1 2.1-6.63 4.86-6.63 2.38 0 3.43 4.59 3.76 6.41l-8.63.22zM580.22 459.42c0 2.05.06 4.04.06 6.03 0 5.36-.22 13.55-4.43 17.47-.72.67-1.5 1.28-2.49 1.28-6.19 0-8.51-17.98-8.51-22.45 0-2.05.16-4.15.66-6.14l-4.26-.72c-.5 2.16-.6 4.37-.6 6.58 0 5.92 1.32 15.81 4.53 20.85 1.6 2.48 4.7 3.92 7.63 3.92 9.24 0 9.73-13.93 9.73-24.05v-3.6c0-1.82 0-3.37.11-4.53l-2.2.1a54.93 54.93 0 00-.23 5.26zM589.3 460.86c0-3.15 1.93-5.64 5.19-5.64 3.04 0 7.35 5.2 5.53 7.96a2.58 2.58 0 01-2.21 1.1c-1.33 0-2.71-.76-3.21-1.93-.44-1.27 1.93-3.04 2.27-1.16.72-.22 1.38-.38 2.1-.55-.39-1.71-1.44-2.43-2.55-2.43-2.04 0-4.36 2.26-3.87 4.92.45 2.15 2.71 3.26 4.93 3.26 1.76 0 3.48-.72 4.25-2.16.39-.71.56-1.6.56-2.54 0-3.82-3.1-8.63-6.7-8.63-4.47 0-10.5 2.6-10.5 7.8 0 7.74 13.71 10.07 13.71 17.42 0 2.76-.6 6.52-4.26 6.52-2.82 0-6.58-.44-7.07-4.42-.89-6.86 9.34-5.53 7.52-1.1-.5 1.16-1.88 1.27-2.22.05-.71.17-1.38.33-2.1.55.45 1.77 1.55 2.5 2.66 2.5 1.88 0 4.03-2 4.03-4.54a5 5 0 00-.66-2.38c-.83-1.5-3.04-2.16-5.09-2.16-4.09 0-6.63 3.76-6.63 7.47 0 1 .22 1.88.66 2.65 1.44 2.44 4.37 3.98 8.24 3.98 5.14 0 9.68-2.76 9.68-8.35 0-8.9-14.27-11.6-14.27-18.19z"/></g></g></svg>