<svg xmlns="http://www.w3.org/2000/svg" width="34.6" height="34.6"><path fill="#0095B6" d="M32.2 18.8l-7.7 2-1.6-.8-2.3-2.7 2.3-2.7 1.6-.8 7.7 2h.1c.2 0 .4-.1.5-.3 0-.3 0-.6-.4-.6L25.7 13l3-1.8 3 .8a.5.5 0 00.2-1l-2-.5 2.2-1.3c.3-.1.3-.4.2-.6a.5.5 0 00-.7-.2l-2.2 1.2.6-2a.5.5 0 10-1-.2l-.8 3-3 1.7L27 5.4a.5.5 0 10-1-.2l-2 7.7-1.6.9-3.4.6-1.2-3.3V9.3l5.7-5.6c.2-.2.2-.5 0-.7a.5.5 0 00-.7 0l-5 5V4.4L20 2.3c.2-.2.2-.5 0-.7a.5.5 0 00-.7 0L17.8 3V.5a.5.5 0 00-1 0V3l-1.4-1.4a.5.5 0 00-.7.7l2.1 2.1V8l-5-5a.5.5 0 00-.6.8l5.6 5.6v1.8l-1.2 3.3-3.4-.6-1.5-.9-2.1-7.7a.5.5 0 00-1 .2l1.8 6.8-3-1.8-.8-2.9a.5.5 0 00-1 .3l.6 2L3 8.4a.5.5 0 00-.7.2c-.1.2 0 .5.2.6l2.2 1.3-2 .5a.5.5 0 00.1 1H3l3-.8 3 1.8-6.8 1.8c-.3 0-.4.3-.4.6a.5.5 0 00.6.3l7.8-2 1.5.8 2.3 2.7-2.3 2.7-1.5.9-7.8-2.1c-.2 0-.5 0-.6.3 0 .3.1.6.4.7l6.7 1.8-3 1.7-3-.8a.5.5 0 10-.2 1l2 .5-2.2 1.3c-.2.1-.3.4-.2.7a.5.5 0 00.7.2l2.2-1.3-.5 2a.5.5 0 00.5.6c.2 0 .4-.2.4-.4l.8-3 3-1.7-1.8 6.8c0 .3.1.5.4.6H8c.2 0 .4-.1.5-.3l2-7.8 1.6-.9 3.4-.6 1.2 3.3v1.8l-5.6 5.6c-.2.2-.2.5 0 .7.2.2.5.2.7 0l5-4.9v3.5l-2.2 2.1c-.2.2-.2.6 0 .7.1.2.5.2.7 0l1.4-1.4V34c0 .3.2.5.5.5s.5-.2.5-.5v-2.5l1.5 1.4.3.2c.1 0 .3 0 .4-.2.2-.1.2-.5 0-.7l-2.2-2.1v-3.5l5 5a.5.5 0 00.7-.8l-5.7-5.6v-1.8l1.2-3.3 3.4.7 1.6.8 2 7.8a.5.5 0 001-.3l-1.8-6.8 3 1.8.8 3a.5.5 0 00.6.3c.3 0 .4-.4.4-.6l-.6-2 2.2 1.3h.3c.1 0 .3 0 .4-.2.2-.3 0-.6-.2-.7L30 24l2-.5a.5.5 0 10-.2-1l-3 .8-3-1.7 6.7-1.8a.5.5 0 00-.2-1zm-12.4.5l-1.5-.2-.5 1.4-.5 1.4-.5-1.4-.5-1.4-1.5.2-1.5.3 1-1.1 1-1.2-1-1.1-1-1.2 1.5.3 1.5.3.5-1.5.5-1.4.5 1.4.5 1.5 1.5-.3 1.5-.3-1 1.2-1 1.1 1 1.2 1 1.1-1.5-.3z"/></svg>